<svg width="145" height="67" viewBox="0 0 145 67" fill="none" xmlns="http://www.w3.org/2000/svg">
<path d="M35.8483 12.9142C33.0987 12.8389 30.3619 13.3159 27.7998 14.3168C25.2378 15.3178 22.9025 16.8223 20.9321 18.7416C18.9617 20.6608 17.3962 22.9558 16.3283 25.4906C15.2603 28.0255 14.7116 30.7487 14.7145 33.4994C14.7145 45.9438 24.8888 54.0845 35.9255 54.0845C43.2828 54.0845 50.249 50.7976 56.197 45.5528V60.972C49.6968 64.7507 42.3465 66.8239 34.8299 66.9987C15.8889 66.9987 0 51.5796 0 33.4994C0 14.3235 15.9678 0 34.9087 0C42.3085 0.121715 49.596 1.83016 56.2789 5.00993V20.1154C49.3095 15.498 42.2659 12.9142 35.8483 12.9142Z" fill="#E31937"/>
<path d="M96.5069 66.9987C77.4871 66.9987 61.3633 52.2054 61.3633 33.4994C61.3633 14.6357 77.3311 0 97.3676 0C104.872 0.0875613 112.287 1.6294 119.204 4.54015V19.5684C112.864 15.8889 104.725 12.993 97.6797 12.993C94.906 12.9117 92.1437 13.3811 89.5525 14.3742C86.9613 15.3673 84.5928 16.8643 82.5839 18.7786C80.575 20.6929 78.9656 22.9866 77.8489 25.5269C76.7321 28.0672 76.1301 30.8037 76.0778 33.5782C76.0778 45.7168 86.0961 54.5543 97.9146 54.5543C100.612 54.6438 103.301 54.1914 105.82 53.2238V41.0852H95.1007V28.3334H119.599V62.2268C112.323 65.4259 104.454 67.052 96.5069 66.9987Z" fill="#E31937"/>
<path d="M130.242 65.6683V1.33057H144.017V65.6683H130.242Z" fill="#E31937"/>
</svg>
